<?xml version="1.0" encoding="utf-8"?>
<!-- Generator: Adobe Illustrator 18.1.0, SVG Export Plug-In . SVG Version: 6.00 Build 0)  -->
<!DOCTYPE svg PUBLIC "-//W3C//DTD SVG 1.1//EN" "http://www.w3.org/Graphics/SVG/1.1/DTD/svg11.dtd">
<svg version="1.1" id="Layer_1" xmlns="http://www.w3.org/2000/svg" xmlns:xlink="http://www.w3.org/1999/xlink" x="0px" y="0px"
	 viewBox="0 0 600 640" enable-background="new 0 0 600 640" xml:space="preserve">
<path fill="#010101" d="M231,144.7c0.1,6,3.5,18.8,6.2,24.4c1.8,0.6,2.4-1.1,3.7-0.8c-3.5-4.9-5.4-17.6-5.4-27.2
	C234.5,142.3,231,144,231,144.7z M571.6,396.8c0.1,35.6-12.5,65.1-24.9,91.8c-1.1,1.2-3.7,0.9-6,0.9c-3.2,36-6.2,84.1-34.3,94.4
	c-10.2,3.7-19.3-1.1-24.9-7.7c-12.4-14.8-16.3-42.3-21.4-64.3c-1.9-1.5-6.1-0.7-8.6-1.7c-7.5-12-17.7-42.3,0.9-48.9
	c-7-8.6,8-17.6,7.7-30c-21,17.3-41,43.1-69.5,55.8c-5.3,33.1-12.9,59.7-25.7,84.1c-11.8,22.6-32.6,45.7-62.6,46.3
	c-50.4,1-77-35.8-86.6-78.9c-2.6-11.7-7.4-26.1,2.6-30.9c-20.7-14-46-36.4-48.9-69.5c-1.1-12.2-0.3-25,6.9-30.9
	c8.7-1.6,18.5-0.5,26.6,0.9c-1.4-11.2-3.3-21.8-4.3-33.5c-4.5,1-9.5,5.5-14.6,5.1c-5.8-0.4-9.3-7.5-13.7-8.6
	c-3.3-0.8-6.8,0.7-10.3,0.9c-44.4,1.8-91.2-25.9-103.8-61.8c-12.7-6.2-25.8-16.4-22.3-36c-18,8.9-28.5-10.4-17.2-20.6
	c6.2-5.6,18-3.8,25.7,0c4.6-7.1,10.7-12.8,23.2-12c-0.1-10.1-7-17.4-3.4-28.3c21.3-11.6,27.6,18.6,30.9,36
	c13.3,2.9,22.6,12.8,18,30.9c9.7,4.6,21.2,7.4,35.2,7.7c0.4-22.2,25.1-20,46.3-21.4c3.2-31.4-7-56.1-25.7-70.3
	c-14.4,5.7-29.4-8-23.2-23.2c-4.4-4.3-17.4-4.2-24.9-2.6c2.7,9.3,14.1,9.9,18,18c-8.3-4.9-17.4-8.9-20.6-18.9
	c2.8-3.8,10.8-2.3,17.2-2.6c-26.6-18.6-61.7-28.7-71.2-64.3c-10.5-5.7-29-29.8-16.3-45.5c1.5-1.8,4.7-3.2,7.7-4.3
	c-2.1-20.2,14.5-32.2,32.6-24c21-20.3,67.6-11.1,84.9,6c5.5-4.3,15.8-4.1,18,3.4c22.6-10.3,44.3,5.4,44.6,28.3
	c5.4,2.1,9,5.9,11.2,11.2c7.7-3.2,6.1-12.8,15.4-12.9c17.3-0.2,15.2,31.7,4.3,40.3c4.7,8.7,1.3,19.5-10.3,18.9
	c-1.3,3.6-2.1,7.6-4.3,10.3c-3.4,0.9-6.3,2.3-11.2,1.7c-2.4,11.6-0.5,26.2,5.1,32.6c4.8-0.2,8.7-0.3,11.2,2.6
	c2.1,4.1-2.1,7.6,0,11.2c9.4-6.2,26.5-2.8,18.9,11.2c3.8-2.8,7.7-5.4,11.2-8.6c9.9,4.9,17.5,12.2,27.4,17.2c0.6,4.6-2.5,5.5-3.4,8.6
	c9.9-8.4,24-12.6,40.3-14.6c5.3,3.9,10.1,8.2,14.6,12.9c18.6-7,42.3-20.3,54-40.3c3.7-6.4,9.7-16.6,8.6-22.3
	c-1.8-8.9-15.1-6-21.4-12c-6.3-15.8,17-17.8,25.7-11.2c4.1-1.1,5.3-5,8.6-6.9c-1.9-7.3-6.4-11.9-5.1-22.3c7.9-15.7,27-5.2,29.2,8.6
	c18.7-12.2,28.9,13.5,11.1,21.4c3.5,14.1,23.3,10.3,36.9,10.3c12,14-6.8,25.9-20.6,27.4c-14.6,19.1-20.7,43.5-32.6,64.3
	c-11.8,20.7-26.7,37.2-43.7,52.3c12,8.6,23.6,17.6,33.5,28.3C518.4,292,571.5,331.6,571.6,396.8z M554.4,465.4
	c8.3-24.8,16-49.4,13.7-78.9c-3.8-49.6-45.4-85.5-101.2-80.6c-34.2,3-59.8,22.7-78.1,43.7c-19.6,22.6-32.3,50.1-42,80.6
	c-2.8-0.6-0.6-4.8-4.3-2.6c-26.3,18.6-63.5,26.3-106.4,28.3c20.5,28,61.4,42.9,107.2,40.3c40.5-2.3,71.3-24.7,94.4-48
	c4.8-4.9,21.9-19,24-24c2.7-6.3-0.8-15,3.4-18.9c2.4,10.7-1.4,22.6-3.4,31.7C482.5,456.7,512.3,467.2,554.4,465.4z M552.7,468.9
	c-41.4,1.1-70.5-10.1-92.6-28.3c-1.8,5.6-4.2,10.7-7.7,14.6c18.1,23,48.9,37.2,92.6,31.7C547.3,480.6,550.6,475.3,552.7,468.9z
	 M490.1,159.2c11.3-2.3,27-7.8,21.4-21.4c-11.4-4.1-16.4,2.8-27.4-0.9c-22-7.3-19-49.5-37.7-48.9c-5.1,0.2-8.8,5.3-9.4,8.6
	c-2.4,12.5,9.5,15.8,6,28.3c-1.3-1.2-1.8-3.3-1.7-6c-8.3,4.4-13.6,15.9-11.2,28.3c-9.3,33-33.2,51.4-63.5,63.5
	c10.1,15.6,17.1,34.3,18,59.2c10.9,0.9,19.2,4.3,27.4,7.7c17.1-15.5,32.7-31.7,44.6-53.2C468.4,203.2,474.3,177.8,490.1,159.2z
	 M472.1,121.4c18.3-4.9,6.1-29.3-7.7-15.4C467.7,110.4,469.3,116.5,472.1,121.4z M426.6,141.2c0.3-6.6,3-10.8,4.3-16.3
	c-7.7-2.5-25.6-6.7-24,6.9C411.2,137.1,422.4,135.7,426.6,141.2z M445.5,308.4c-14.6-17-34.5-34.8-63.5-36.9
	c-6.7-0.5-17.7,1.6-23.2-0.9c2.8-0.1,5.3-0.4,6.9-1.7c-19.2-23.1-45-39.7-73.8-53.2c3.2-1.9,6,2.8,10.3,2.6
	c2.1-5.4,5.7-9.1,7.7-14.6c-7.4-6.1-15.3-11.6-24-16.3c-0.2,13.1,5.9,24.4,3.4,36.9c-11.2-2.8-19-9-30.9-11.2
	c-2.8,12.9,5.4,21.9,8.6,31.7c-10.8,14.6-28.2,22.7-44.6,31.7c10.6,8.5,20,19.4,21.4,35.2c2.8,30.8-24.5,48.3-42.9,60
	c1.3,32.8,8.9,59.2,20.6,81.5c52.5,0.8,93.5-10.1,125.2-30C364.8,370.1,392.3,326.5,445.5,308.4z M382,269.8
	c0.7-25.3-10.9-53.9-26.6-66.9c-13.3-11-44.5,4-50.6,18c27.4,10.7,46,30,65.2,48.9C374,269.8,378,269.8,382,269.8z M342.5,597.5
	c25.1-23.8,39.5-67.6,43.7-108.9c-27.7,16-83.4,11.7-112.4,0c2.6,14.2-1,28.5-5.1,39.5c-2.9,7.8-5.6,17.1-11.2,18.9
	c3.5-10.8,11.9-21.3,11.2-33.5c-22.7,3.1-40.5,11-50.6,26.6c9,40.1,35.1,71.6,78.1,74.6C317,616.1,332,607.5,342.5,597.5z
	 M287.6,213.2c-2.5-7.5-0.6-19.4-6-24c-2.3,4.8-8.6,5.7-10.3,11.2C275.9,205.5,280.6,210.6,287.6,213.2z M288.5,221.8
	c-2.2-9.3-11.5-11.4-17.2-17.2c0.7,5-3.2,5.4-3.4,9.4C275.6,215.8,280.8,220,288.5,221.8z M263.6,198.6c4-4,10.8-5.2,9.4-14.6
	c-3.4-4.9-11.9-1.6-15.4,0.9c-4.8-2.8-7.2-1.9-10.3,2.6c4.4,0.8,12.1-1.8,13.7,1.7c-6.4,16.5-20.2,28-37.7,25.7
	c-16.5-2.1-32.6-22.8-32.6-40.3c0-32.8,47.1-42.6,66-62.6c4.9-5.2,11-13.3,12.9-19.7c2.9-10.1-0.4-25.5-10.3-24.9
	c-8.1,0.5-8.8,13.2-14.6,14.6c-12.2,32-69,46.9-56.6,101.2c1.1,5,4.8,13.1,8.6,18c7,9.1,24.3,22.7,39.5,20.6
	c10.4-1.4,13.8-14.9,29.2-10.3c1.6-2.4,4.2-3.8,3.4-8.6C269.7,198.9,263.7,201.8,263.6,198.6z M270.5,510.9
	c1.8-6.2,0.5-15.6,0.9-23.2c-25.1,2.6-42.4,13-56.6,26.6c-0.2,7.6,0.9,14,2.6,19.7C229.3,524.1,245.9,511.2,270.5,510.9z
	 M261.9,120.6c2.5-3.2,5.4-9.8,0-12c-16.9,24.3-53.7,28.7-66.9,56.6c10.1,2.4,9-6.4,12-11.2c3.8,1.3,5,0,9.4,0c3.5-2.2,3-8.4,6-11.2
	c3.9,0.4,6.4-0.4,9.4-0.9c2.8-1.7,2.6-6.6,5.1-8.6c4.6,1,8.5,1.1,12-0.9c1.6-2.9,2.4-6.7,3.4-10.3
	C256.8,122.9,258.7,121.1,261.9,120.6z M265.3,244.1c-5.5-8.2-9-18.4-10.3-30.9c-20.3,13.5-42.8,24.7-60.9,40.3c0,4.3,0,8.6,0,12.9
	c9.5,2.3,19.4,4,26.6,8.6C237.7,266.8,254.2,258.2,265.3,244.1z M191.6,374.5c22.3-11.7,53.9-31,50.6-62.6
	c-3.5-34-42.8-52.6-81.5-38.6C188.2,288.2,201.2,337.7,191.6,374.5z M226.7,102.6c7.3-7.2,25.1-28.8,8.6-33.5
	c-17-4.8-24.8,20.8-34.3,24.9c4.4,22.2-12.9,36.4-26.6,37.7c-43.1,4.1-45.7-64.8-2.6-63.5c-0.8-15.7,7.6-22.2,14.6-30
	c-2.3-5.8-12.5-3.3-15.4,0c-12.6-9-25.4-17.4-43.7-18.9c-36.1-3-53,23.5-61.8,50.6c1.3,3.6,6.6,3.1,7.7,6.9
	c-4.2,1.3-7.4-6.4-8.6-2.6c-2.3,5.9-2.4,17.9-0.9,24.9c1.4,2.9,7.2,1.4,7.7,5.1c-3.1,0.2-4.1-1.6-6.9-1.7
	c10.3,35.2,45.6,45.3,72.9,63.5c-2.5-7.2-9-10.5-8.6-20.6c9.9-3.8,23.4,2.7,30,7.7c-10-1.3-18.6-8.1-28.3-6.9
	c2.2,10.6,8.6,17.1,14.6,24c2.4-3.9,10.9-9.8,15.4-6c-22.4,0.8-19.8,33.7,1.7,30.9c9-1.2,9.2-12.1,15.4-14.6
	c-1.9,5.8-4.9,10.5-8.6,14.6c14.3,12.3,24.6,28.5,26.6,53.2c12.3-7.7,24.1-15.9,36-24c-30.9-7.6-50.1-27.7-47.2-60.9
	C187.3,133.4,211.6,117.4,226.7,102.6z M231.9,66.5c2.1-39.2-62.2-38.5-58.3,1.7c14.7,1.9,22.3,10.9,27.4,22.3
	C211.7,82.9,215.8,68.8,231.9,66.5z M193.3,363.3c0.2-33.1-6.4-59.4-20.6-78.1c-17.6,8.7-45.6,4.6-62.6-1.7c-2.1,1-1,5.3-5.1,4.3
	c3.4-10,8.1-20.9,1.7-29.2c-9.3-12.1-37.5-5.3-34.3,10.3c2.6,12.9,23,4.1,26.6,0c-4.4,12.2-28,13-29.2-0.9
	c-0.9-10.3,9.2-16.9,20.6-18c-3.8-15.8-5.7-42.1-25.7-36c-4.5,12.1,7.9,23.4,2.6,33.5c-2.3,0.3,0.8-4.8-2.6-3.4
	c-27.6-6.6-24.7,40.2-7.7,40.3c14,0.1,7.8-19.9,6.9-28.3c8.3,10.5,6,30.9-6.9,30.9c-12.7,0-15-17.2-15.4-31.7
	c-11.9-5-30.6-3.7-26.6,14.6c6.1,8.6,19.8-2.1,25.7,1.7c-0.2,4-4.6-1.5-4.3,2.6c-4.6,24.4,16.1,30.8,30.9,38.6
	c-3.8,1.8-7.6-3.6-7.7,0C77.8,354.3,135.3,380.3,193.3,363.3z M174.4,370.2c3.2,9.9,18,7.6,18-3.4
	C186.4,367.9,180.4,369,174.4,370.2z M167.5,130c43.3,4.2,41.4-66.6-1.7-59.2C132.4,76.6,135.9,126.9,167.5,130z M170.1,283.6
	c-3.1-10-24.2-14.7-20.6,4.3C157.9,288,164,285.8,170.1,283.6z M70.6,52c2.3-9.2,12-15.4,13.7-22.3C67.1,23.9,54.8,34.1,56,52
	C60.7,50.4,65.6,51.5,70.6,52z M63.7,67.4c1.1-5.2,3.7-8.9,5.1-13.7c-5.6-0.5-7.2-0.5-12.9,0C56.9,60,58.6,65.4,63.7,67.4z
	 M54.3,55.4c-19.1,5.8-6,41.6,6.9,41.2c-2.1-7.9-0.6-19.4,1.7-25.7C58.7,67,55.1,62.6,54.3,55.4z"/>
<path fill="#60605F" d="M237.2,169.1c-2.7-5.5-6.1-18.4-6.2-24.4c0-0.7,3.5-2.4,4.5-3.6c0,9.6,1.9,22.2,5.4,27.2
	C239.6,168,239,169.7,237.2,169.1z"/>
<path fill="#C1C1C1" d="M568.1,386.5c2.3,29.5-5.4,54.1-13.7,78.9c-42.1,1.8-71.9-8.8-92.6-28.3c2-9.2,5.8-21,3.4-31.7
	c-4.2,3.9-0.8,12.6-3.4,18.9c-2.1,5-19.2,19.1-24,24c-23.1,23.3-53.8,45.7-94.4,48c-45.8,2.6-86.7-12.3-107.2-40.3
	c42.9-2,80.1-9.7,106.4-28.3c3.7-2.3,1.5,2,4.3,2.6c9.8-30.5,22.5-58.1,42-80.6c18.2-21,43.9-40.7,78.1-43.7
	C522.8,301,564.3,336.9,568.1,386.5z"/>
<path fill="#C1C1C1" d="M460.1,440.5c22.2,18.2,51.3,29.4,92.6,28.3c-2.1,6.5-5.4,11.7-7.7,18c-43.7,5.4-74.6-8.7-92.6-31.7
	C455.9,451.3,458.2,446.2,460.1,440.5z"/>
<path fill="#9E9E9E" d="M490.1,159.2c-15.8,18.6-21.7,44-33.5,65.2c-11.9,21.5-27.5,37.6-44.6,53.2c-8.3-3.4-16.6-6.9-27.4-7.7
	c-0.9-24.9-7.9-43.6-18-59.2c30.2-12.1,54.2-30.5,63.5-63.5c-2.5-12.4,2.8-23.9,11.2-28.3c-0.1,2.7,0.4,4.8,1.7,6
	c3.5-12.5-8.4-15.8-6-28.3c0.6-3.3,4.3-8.4,9.4-8.6c18.8-0.6,15.7,41.6,37.7,48.9c11,3.7,16-3.2,27.5,0.9
	C517.1,151.4,501.4,156.9,490.1,159.2z M464.3,106c3.4,4.4,4.9,10.5,7.7,15.4C490.3,116.5,478.2,92.2,464.3,106z M426.6,141.2
	c0.3-6.6,3-10.8,4.3-16.3c-7.7-2.5-25.6-6.7-24,6.9C411.2,137.1,422.4,135.7,426.6,141.2z"/>
<path fill="#C1C1C1" d="M386.3,488.6c-4.3,41.3-18.7,85.2-43.7,108.9c-10.5,10-25.5,18.6-46.3,17.2c-42.9-3-69.1-34.5-78.1-74.6
	c10.1-15.6,27.9-23.5,50.6-26.6c0.8,12.2-7.6,22.7-11.2,33.5c5.6-1.8,8.2-11.1,11.2-18.9c4.1-10.9,7.8-25.2,5.1-39.5
	C302.9,500.3,358.6,504.6,386.3,488.6z"/>
<path fill="#FFFFFF" d="M271.3,204.6c5.6,5.8,15,7.9,17.2,17.2c-7.7-1.8-12.9-6-20.6-7.7C268.1,210,272.1,209.7,271.3,204.6z"/>
<path fill="#60605F" d="M273.1,184.1c1.4,9.4-5.5,10.5-9.4,14.6c0,3.1,6.1,0.2,5.1,4.3c0.8,4.8-1.9,6.1-3.4,8.6
	c-15.4-4.6-18.8,8.9-29.2,10.3c-15.1,2.1-32.4-11.4-39.5-20.6c-3.8-4.9-7.4-13.1-8.6-18c-12.4-54.3,44.5-69.2,56.6-101.2
	c5.7-1.4,6.5-14.1,14.6-14.6c9.9-0.6,13.2,14.8,10.3,24.9c-1.9,6.4-8,14.6-12.9,19.7c-19,20-66,29.8-66,62.6
	c0,17.5,16.1,38.2,32.6,40.3c17.5,2.2,31.4-9.2,37.7-25.7c-1.7-3.5-9.4-0.9-13.7-1.7c3.1-4.5,5.4-5.3,10.3-2.6
	C261.2,182.5,269.7,179.2,273.1,184.1z"/>
<path fill="#C1C1C1" d="M271.3,487.7c-0.4,7.6,0.9,16.9-0.9,23.2c-24.6,0.3-41.1,13.2-53.2,23.2c-1.7-5.7-2.7-12.1-2.6-19.7
	C228.9,500.8,246.2,490.3,271.3,487.7z"/>
<path fill="#FFFFFF" d="M261.9,108.6c5.4,2.2,2.5,8.8,0,12c-3.2,0.5-5.1,2.3-9.4,1.7c-1,3.6-1.8,7.4-3.4,10.3c-3.5,2-7.4,1.8-12,0.9
	c-2.5,2-2.3,6.8-5.1,8.6c-3,0.4-5.6,1.3-9.4,0.9c-3,2.8-2.5,8.9-6,11.2c-4.4,0-5.6,1.3-9.4,0c-3,4.7-1.9,13.5-12,11.2
	C208.2,137.3,245,132.9,261.9,108.6z"/>
<path fill="#9E9E9E" d="M184.7,163.5c2.6-30.1,26.9-46.1,42-60.9c7.3-7.2,25.1-28.8,8.6-33.5c-17-4.8-24.8,20.8-34.3,24.9
	c4.4,22.2-12.9,36.4-26.6,37.7c-43.1,4.1-45.7-64.8-2.6-63.5c-0.8-15.7,7.6-22.2,14.6-30c-2.3-5.8-12.5-3.3-15.4,0
	c-12.6-9-25.4-17.4-43.7-18.9c-36.1-3-53,23.5-61.8,50.6c1.3,3.6,6.6,3.1,7.7,6.9c-4.2,1.3-7.4-6.4-8.6-2.6
	c-2.3,5.9-2.4,17.9-0.9,24.9c1.4,2.9,7.2,1.4,7.7,5.1c-3.1,0.2-4.1-1.6-6.9-1.7c10.3,35.2,45.6,45.3,72.9,63.5
	c-2.5-7.2-9-10.5-8.6-20.6c9.9-3.8,23.4,2.6,30,7.7c-10-1.3-18.6-8.1-28.3-6.9c2.2,10.6,8.6,17.1,14.6,24c2.4-3.9,10.9-9.8,15.4-6
	c-22.4,0.8-19.8,33.7,1.7,30.9c9-1.2,9.2-12.1,15.4-14.6c-1.9,5.8-4.9,10.5-8.6,14.6c14.3,12.3,24.6,28.5,26.6,53.2
	c12.3-7.7,24.1-15.9,36-24C201,216.7,181.8,196.7,184.7,163.5z M159,175.5c-0.2,5.1,3.3,6.5,6.9,7.7c-2.5,4.1-9.4-1.2-8.6-6
	c-3.9-0.1-1.3,6.1-6,5.1c-0.1-7.5,11.1-14.2,15.4-6.9C163.5,176,161.3,173.3,159,175.5z"/>
<path fill="#FFFFFF" d="M173.6,68.3c14.7,1.9,22.3,10.9,27.4,22.3c10.7-7.6,14.8-21.8,30.9-24C234,27.4,169.7,28,173.6,68.3z
	 M218.2,57.1c-0.7-0.3-1.5-0.8-1.7-1.7c-1.6-5.6,5.9-6.7,6.9-2.6C223.6,56.2,221.7,57.5,218.2,57.1z"/>
<path fill="#010101" d="M223.3,52.8c0.3,3.4-1.6,4.6-5.1,4.3c-0.7-0.3-1.5-0.8-1.7-1.7C214.8,49.8,222.4,48.7,223.3,52.8z"/>
<path fill="#9E9E9E" d="M172.7,285.3c-17.6,8.7-45.6,4.6-62.6-1.7c-2.1,1-1,5.3-5.1,4.3c3.4-10,8.1-20.9,1.7-29.2
	c-9.3-12.1-37.5-5.3-34.3,10.3c2.6,12.9,23,4.1,26.6,0c-4.4,12.2-28,13-29.2-0.9c-0.9-10.3,9.2-16.9,20.6-18
	c-3.9-15.8-5.7-42.1-25.7-36c-4.5,12.1,7.9,23.4,2.6,33.5c-2.3,0.3,0.8-4.8-2.6-3.4c-27.6-6.6-24.7,40.2-7.7,40.3
	c14,0.1,7.8-19.9,6.9-28.3c8.3,10.5,6,30.9-6.9,30.9c-12.7,0-15-17.2-15.4-31.7c-11.9-5-30.6-3.7-26.6,14.6c6.1,8.6,19.8-2,25.7,1.7
	c-0.2,4-4.6-1.5-4.3,2.6c-4.6,24.4,16.1,30.8,30.9,38.6c-3.8,1.8-7.6-3.6-7.7,0c18.3,41.6,75.8,67.6,133.8,50.6
	C193.5,330.3,186.9,304,172.7,285.3z"/>
<path fill="#FFFFFF" d="M165.8,70.8c-33.4,5.7-29.9,56.1,1.7,59.2C210.9,134.2,209,63.4,165.8,70.8z M165,112
	c-0.8-0.2-1.4-0.9-1.7-1.7c-1.6-5.6,5.9-6.7,6.9-2.6C170.4,111.1,168.5,112.4,165,112z"/>
<path fill="#010101" d="M170.1,107.7c0.3,3.4-1.6,4.6-5.1,4.3c-0.8-0.2-1.4-0.9-1.7-1.7C161.6,104.7,169.2,103.6,170.1,107.7z"/>
<path fill="#9E9E9E" d="M166.7,175.5c-3.2,0.5-5.4-2.2-7.7,0c-0.2,5.1,3.3,6.5,6.9,7.7c-2.5,4.1-9.4-1.2-8.6-6
	c-3.9-0.1-1.3,6.1-6,5.1C151.1,174.9,162.4,168.2,166.7,175.5z"/>
<path fill="#FFFFFF" d="M445.5,308.4c-53.2,18-80.7,61.7-98.6,114.9c-31.8,20-72.7,30.8-125.2,30c-11.7-22.3-19.3-48.7-20.6-81.5
	c18.4-11.8,45.7-29.3,42.9-60c-1.5-15.8-10.8-26.7-21.4-35.2c16.4-9,33.8-17.1,44.6-31.7c-3.2-9.8-11.3-18.8-8.6-31.7
	c11.9,2.1,19.7,8.3,30.9,11.2c2.4-12.5-3.6-23.8-3.4-36.9c8.7,4.7,16.7,10.2,24,16.3c-2,5.5-5.7,9.2-7.7,14.6
	c-4.3,0.3-7.1-4.4-10.3-2.6c28.8,13.5,54.6,30.1,73.8,53.2c-1.6,1.3-4.1,1.6-6.9,1.7c5.5,2.4,16.5,0.4,23.2,0.9
	C410.9,273.6,430.9,291.5,445.5,308.4z M370,269.8c4,0,8,0,12,0c0.7-25.3-10.9-53.9-26.6-66.9c-13.3-11-44.5,4-50.6,18
	C332.2,231.6,350.8,251,370,269.8z M287.6,213.2c-2.5-7.5-0.6-19.4-6-24c-2.3,4.8-8.6,5.7-10.3,11.2
	C275.9,205.5,280.6,210.6,287.6,213.2z M265.3,244.1c-5.5-8.2-9-18.4-10.3-30.9c-20.3,13.5-42.8,24.7-60.9,40.3c0,4.3,0,8.6,0,12.9
	c9.5,2.3,19.4,4,26.6,8.6C237.7,266.8,254.2,258.2,265.3,244.1z M242.2,311.9c-3.5-34-42.8-52.6-81.5-38.6
	c27.5,15,40.5,64.5,30.9,101.2C213.8,362.8,245.5,343.5,242.2,311.9z M174.4,370.2c3.2,9.9,18,7.6,18-3.4
	C186.4,367.9,180.4,369,174.4,370.2z M149.5,287.9c8.4,0.1,14.5-2.1,20.6-4.3C167,273.6,145.9,268.9,149.5,287.9z"/>
<path fill="#333333" d="M243,169.9c-1,0.1-21,3.4-23.4,13.5c-1.9,8,6.8,24.3,6.8,29.9c6,1.1,11.6-2.5,17.1-4.1
	c5.5-1.7-4.2-14.2-3.5-18.5s3.6-2.1,5.5-3.9s10.3-7.2,7.8-14.3C252.4,170.1,249.2,169.1,243,169.9z"/>
<path fill="none" stroke="#010101" stroke-width="1.5" stroke-linecap="round" stroke-miterlimit="10" d="M247.3,186
	c0,0-11.5,4.6-12.9,8.5"/>
<path fill="none" stroke="#010101" stroke-width="1.5" stroke-linecap="round" stroke-miterlimit="10" d="M228.6,174
	c4.7,0.6,10.5-0.1,13.1,2.3"/>
</svg>
